<svg height="416pt" viewBox="-34 0 416 416.43166" width="416pt" xmlns="http://www.w3.org/2000/svg"><path d="m48.003906 47.785156h225.277344v300.375h-225.277344zm0 0" fill="#fff"/><path d="m273.28125 354.988281h-225.277344c-3.769531 0-6.828125-3.054687-6.828125-6.828125v-300.375c0-3.773437 3.058594-6.824218 6.828125-6.824218h225.277344c3.769531 0 6.828125 3.050781 6.828125 6.824218v300.375c0 3.773438-3.058594 6.828125-6.828125 6.828125zm-218.453125-13.65625h211.628906v-286.71875h-211.628906zm0 0" fill="#0e65e5"/><path d="m27.523438 27.308594h225.277343v300.371094h-225.277343zm0 0" fill="#94c1ff"/><path d="m252.800781 334.507812h-225.277343c-3.769532 0-6.828126-3.054687-6.828126-6.828124v-300.371094c0-3.773438 3.058594-6.828125 6.828126-6.828125h225.277343c3.773438 0 6.828125 3.054687 6.828125 6.828125v300.371094c0 3.773437-3.054687 6.828124-6.828125 6.828124zm-218.453125-13.65625h211.628906v-286.71875h-211.628906zm0 0" fill="#0e65e5"/><path d="m314.242188 409.601562h-13.652344l-40.960938-34.136718-40.960937 34.136718h-13.652344l13.652344-75.09375h95.574219zm0 0" fill="#0e65e5"/><path d="m314.242188 416.425781h-13.652344c-1.597656 0-3.144532-.558593-4.371094-1.578125l-36.589844-30.496094-36.589844 30.496094c-1.226562 1.019532-2.773437 1.578125-4.371093 1.578125h-13.652344c-2.023437 0-3.945313-.898437-5.238281-2.453125-1.296875-1.554687-1.839844-3.597656-1.476563-5.59375l13.652344-75.09375c.589844-3.246094 3.417969-5.605468 6.71875-5.605468h95.574219c3.769531 0 6.824218 3.054687 6.824218 6.828124v75.09375c0 3.773438-3.058593 6.824219-6.828124 6.824219zm-11.183594-13.652343h4.355468v-61.441407h-83.046874l-11.171876 61.441407h3.003907l39.0625-32.554688c2.53125-2.105469 6.207031-2.105469 8.738281 0zm0 0" fill="#0e65e5"/><path d="m300.589844 409.601562-47.789063-34.136718-47.785156 34.136718v-75.09375h95.574219zm0 0" fill="#2a8ee6"/><path d="m300.589844 416.425781c-1.398438 0-2.789063-.425781-3.96875-1.273437l-43.820313-31.300782-43.820312 31.300782c-2.078125 1.496094-4.820313 1.695312-7.085938.523437-2.273437-1.175781-3.707031-3.515625-3.707031-6.074219v-75.09375c0-3.773437 3.058594-6.828124 6.828125-6.828124h95.574219c3.769531 0 6.824218 3.054687 6.824218 6.828124v75.09375c0 2.558594-1.429687 4.898438-3.703124 6.074219-.980469.496094-2.054688.75-3.121094.75zm-47.789063-47.785156c1.390625 0 2.78125.425781 3.96875 1.273437l36.992188 26.417969v-55h-81.917969v55l36.992188-26.417969c1.1875-.847656 2.578124-1.273437 3.964843-1.273437zm0 0" fill="#0e65e5"/><path d="m7.042969 6.828125h225.28125v300.371094h-225.28125zm0 0" fill="#fff"/><path d="m232.324219 314.027344h-225.28125c-3.769531 0-6.828125-3.054688-6.828125-6.828125v-300.371094c0-3.773437 3.058594-6.828125 6.828125-6.828125h225.28125c3.769531 0 6.824219 3.054688 6.824219 6.828125v300.371094c0 3.773437-3.054688 6.828125-6.824219 6.828125zm-218.453125-13.652344h211.625v-286.722656h-211.625zm0 0" fill="#0e65e5"/><path d="m266.457031 354.988281h-13.65625v-150.1875h13.65625c41.472657 0 75.09375 33.617188 75.09375 75.09375 0 41.472657-33.621093 75.09375-75.09375 75.09375zm0 0" fill="#0e65e5"/><path d="m266.457031 361.8125h-13.65625c-3.769531 0-6.824219-3.050781-6.824219-6.824219v-150.1875c0-3.773437 3.054688-6.828125 6.824219-6.828125h13.65625c45.167969 0 81.917969 36.746094 81.917969 81.921875 0 45.171875-36.75 81.917969-81.917969 81.917969zm-6.828125-13.652344h6.828125c37.644531 0 68.265625-30.625 68.265625-68.265625s-30.621094-68.269531-68.265625-68.269531h-6.828125zm0 0" fill="#0e65e5"/><path d="m327.894531 279.894531c0 41.472657-33.617187 75.09375-75.09375 75.09375-41.472656 0-75.089843-33.621093-75.089843-75.09375 0-41.472656 33.617187-75.09375 75.089843-75.09375 41.476563 0 75.09375 33.621094 75.09375 75.09375zm0 0" fill="#94c1ff"/><path d="m252.800781 361.8125c-45.167969 0-81.917969-36.746094-81.917969-81.917969 0-45.175781 36.75-81.921875 81.917969-81.921875 45.171875 0 81.921875 36.746094 81.921875 81.921875 0 45.171875-36.75 81.917969-81.921875 81.917969zm0-150.1875c-37.640625 0-68.265625 30.628906-68.265625 68.269531s30.625 68.265625 68.265625 68.265625c37.644531 0 68.269531-30.625 68.269531-68.265625s-30.625-68.269531-68.269531-68.269531zm0 0" fill="#0e65e5"/><path d="m211.84375 286.71875c-3.769531 0-6.828125-3.050781-6.828125-6.824219 0-26.347656 21.4375-47.789062 47.785156-47.789062 3.773438 0 6.828125 3.054687 6.828125 6.828125 0 3.773437-3.054687 6.828125-6.828125 6.828125-18.816406 0-34.132812 15.3125-34.132812 34.132812 0 3.773438-3.054688 6.824219-6.824219 6.824219zm0 0" fill="#fff"/><g fill="#0e65e5"><path d="m95.789062 47.785156h-61.441406c-3.769531 0-6.824218-3.050781-6.824218-6.824218 0-3.773438 3.054687-6.828126 6.824218-6.828126h61.441406c3.769532 0 6.828126 3.054688 6.828126 6.828126 0 3.773437-3.058594 6.824218-6.828126 6.824218zm0 0"/><path d="m136.75 116.054688h-102.402344c-3.769531 0-6.824218-3.054688-6.824218-6.828126 0-3.773437 3.054687-6.828124 6.824218-6.828124h102.402344c3.769531 0 6.824219 3.054687 6.824219 6.828124 0 3.773438-3.054688 6.828126-6.824219 6.828126zm0 0"/><path d="m136.75 150.1875h-102.402344c-3.769531 0-6.824218-3.054688-6.824218-6.828125s3.054687-6.824219 6.824218-6.824219h102.402344c3.769531 0 6.824219 3.050782 6.824219 6.824219s-3.054688 6.828125-6.824219 6.828125zm0 0"/><path d="m95.789062 245.761719h-61.441406c-3.769531 0-6.824218-3.054688-6.824218-6.828125 0-3.773438 3.054687-6.828125 6.824218-6.828125h61.441406c3.769532 0 6.828126 3.054687 6.828126 6.828125 0 3.773437-3.058594 6.828125-6.828126 6.828125zm0 0"/><path d="m205.015625 81.921875h-170.667969c-3.769531 0-6.824218-3.054687-6.824218-6.828125s3.054687-6.828125 6.824218-6.828125h170.667969c3.769531 0 6.828125 3.054687 6.828125 6.828125s-3.058594 6.828125-6.828125 6.828125zm0 0"/></g><path d="m314.242188 320.851562c-3.769532 0-6.828126-3.050781-6.828126-6.824218v-27.308594c0-3.773438 3.058594-6.824219 6.828126-6.824219 3.769531 0 6.828124 3.050781 6.828124 6.824219v27.308594c0 3.773437-3.058593 6.824218-6.828124 6.824218zm0 0" fill="#fff"/><path d="m327.894531 307.199219h-27.304687c-3.769532 0-6.828125-3.050781-6.828125-6.824219s3.058593-6.828125 6.828125-6.828125h27.304687c3.769531 0 6.828125 3.054687 6.828125 6.828125s-3.058594 6.824219-6.828125 6.824219zm0 0" fill="#fff"/></svg>