<?xml version="1.0" encoding="utf-8"?>
<!-- Generator: Adobe Illustrator 24.1.2, SVG Export Plug-In . SVG Version: 6.00 Build 0)  -->
<svg version="1.1" id="Capa_1" xmlns="http://www.w3.org/2000/svg" xmlns:xlink="http://www.w3.org/1999/xlink" x="0px" y="0px"
	 width="60px" height="44px" viewBox="0 0 60 44" style="enable-background:new 0 0 60 44;" xml:space="preserve">
<style type="text/css">
	.st0{fill-rule:evenodd;clip-rule:evenodd;fill:#FFFFFF;}
	.st1{fill-rule:evenodd;clip-rule:evenodd;fill:#4F97D9;}
</style>
<path id="montainone" class="st0" d="M1.7,40L23.3,8c1.2-1.4,2.5-1.3,3.7,0.6c2.7,4.2,7.4,10.7,7.8,11.7c-0.8,1-4.9,3.7-4.9,3.7
	c-6.3,4.8-4.1,6.9-4.1,6.9c1.4,1.6,5.5,3.2,5.5,3.2c2.9,1.5-0.4,4-0.4,4C28.3,40,23,40,23,40"/>
<path id="montainone_copia" class="st1" d="M59.1,40L42.5,16.3c-0.9-1-1.9-1-2.8,0.4c-2.1,3.1-5.7,7.9-6.1,8.7
	c-2.1,3.1-2.8,3.7-2.5,5.1c0.8,1.8,6,1.5,7.2,3.2c0.8,1.5-0.9,2.2-1.5,4.1c-0.6,2.3,5.9,2.1,5.9,2.1"/>
</svg>
